/vscmnt/brussel_pixiu_data/_data_brussel/112/vsc11236/PredSimResults/SUBJ10mtu3D/weighted-LRposFixed/expIG/worker_05.mot
version=1
nRows=7
nColumns=50
inDegrees=yes
endheader
                time	         pelvis_tilt	         pelvis_list	     pelvis_rotation	           pelvis_tx	           pelvis_ty	           pelvis_tz	       hip_flexion_r	     hip_adduction_r	      hip_rotation_r	        knee_angle_r	       ankle_angle_r	         mtp_angle_r	       hip_flexion_l	     hip_adduction_l	      hip_rotation_l	        knee_angle_l	       ankle_angle_l	         mtp_angle_l	    lumbar_extension	      lumbar_bending	     lumbar_rotation	 ercspn_r/activation	 intobl_r/activation	 extobl_r/activation	    abd_r/activation	    add_r/activation	hamstrings_r/activation	bifemsh_r/activation	glut_max_r/activation	iliopsoas_r/activation	rect_fem_r/activation	  vasti_r/activation	gastroc_r/activation	 soleus_r/activation	tib_ant_r/activation	 ercspn_l/activation	 intobl_l/activation	 extobl_l/activation	    abd_l/activation	    add_l/activation	hamstrings_l/activation	bifemsh_l/activation	glut_max_l/activation	iliopsoas_l/activation	rect_fem_l/activation	  vasti_l/activation	gastroc_l/activation	 soleus_l/activation	tib_ant_l/activation	
          0.00000000	         -5.07801011	         -2.94989307	         10.95626441	          0.00000000	          0.82671998	         -0.01641993	         29.14633106	         -1.30344819	         -8.49393479	         -4.40634408	          6.77608420	          0.25272003	        -12.27974204	         -3.14210414	          7.07531432	         -7.97158624	          9.95143800	         25.35260616	         -6.40130526	          1.08579973	         -4.04989059	          0.08779625	          0.16042913	          0.02057259	          0.01680120	          0.14827287	          0.03523394	          0.11593136	          0.01716770	          0.06962289	          0.01434314	          0.01197628	          0.00999999	          0.00999999	          0.27065796	          0.03884863	          0.00999999	          0.00999999	          0.04080200	          0.05034266	          0.02804785	          0.12610700	          0.03533914	          0.34675769	          0.00999999	          0.00999999	          0.26674312	          0.25276533	          0.01631510	
          0.01185775	         -5.14602842	         -2.75394109	         10.78834886	          0.01556648	          0.82496183	         -0.01587704	         29.20828186	         -1.11730646	         -7.49711384	         -6.09045595	          6.47102883	          0.24542570	        -12.34644255	         -2.93872362	          6.41114932	         -9.83727347	          9.45722037	         27.04273754	         -6.16641493	          1.48471418	         -4.21640248	          0.07330838	          0.13395560	          0.01717776	          0.01402872	          0.20276517	          0.03353357	          0.09680072	          0.07065166	          0.05813393	          0.01197628	          0.00999999	          0.01945507	          0.01887440	          0.27568374	          0.08307469	          0.00999999	          0.00999999	          0.03406898	          0.10094595	          0.02341948	          0.10529721	          0.02950758	          0.35883791	          0.00999999	          0.00999999	          0.22272598	          0.23904907	          0.01362283	
          0.02371549	         -5.19636426	         -2.56718456	         10.56029628	          0.03144940	          0.82336656	         -0.01528744	         29.07258626	         -0.93142384	         -6.47666685	         -7.64734817	          6.16138275	          0.23954779	        -12.23932038	         -2.72733003	          5.69442644	        -12.08532588	          8.84452365	         28.70474655	         -5.91174529	          1.91100297	         -4.35997653	          0.07074027	          0.11185066	          0.01434314	          0.05781084	          0.18618565	          0.04560707	          0.08651180	          0.08430390	          0.04854085	          0.00999999	          0.00999999	          0.01624466	          0.01575981	          0.31125109	          0.10241112	          0.00999999	          0.00999999	          0.02844702	          0.09843722	          0.01955487	          0.08792138	          0.02463833	          0.34741351	          0.00999999	          0.00999999	          0.18597242	          0.22205724	          0.01137484	
          0.03557324	         -5.23118508	         -2.38624138	         10.27215976	          0.04742761	          0.82208867	         -0.01459243	         28.78021699	         -0.71761533	         -5.53567838	         -8.94250051	          5.77118569	          0.22682750	        -11.89538459	         -2.51026597	          4.92740461	        -14.77659680	          8.05629054	         30.26543526	         -5.65960029	          2.34957192	         -4.47834753	          0.07772390	          0.09339340	          0.01197628	          0.09637456	          0.18819149	          0.04220243	          0.07223589	          0.10648926	          0.04053079	          0.00999999	          0.00999999	          0.01356401	          0.01315917	          0.32928196	          0.12556004	          0.00999999	          0.00999999	          0.02375278	          0.10740868	          0.01978923	          0.07341286	          0.02057259	          0.32887758	          0.00999999	          0.00999999	          0.15528381	          0.18741348	          0.00999999	
          0.04743099	         -5.25111891	         -2.21730454	          9.92811094	          0.06328379	          0.82125017	         -0.01380013	         28.42531225	         -0.47638430	         -4.69765301	        -10.14283449	          5.43413960	          0.21745837	        -11.27410959	         -2.29919948	          4.10031826	        -17.93564352	          7.09184728	         31.52633019	         -5.42873377	          2.80660861	         -4.56887956	          0.06897468	          0.07798191	          0.00999999	          0.11671701	          0.17928852	          0.04417612	          0.06031574	          0.10486439	          0.03384252	          0.00999999	          0.04208367	          0.01132572	          0.01098768	          0.34691836	          0.14600942	          0.00999999	          0.00999999	          0.01983317	          0.11955063	          0.02477123	          0.06129850	          0.01717776	          0.29750182	          0.00999999	          0.00999999	          0.12965935	          0.15648708	          0.00999999	
          0.05928873	         -5.25767144	         -2.06058442	          9.53021876	          0.07887503	          0.82093833	         -0.01292674	         28.02940375	         -0.21671335	         -3.95546999	        -11.26180852	          5.16640655	          0.20566473	        -10.36408241	         -2.10547740	          3.19808154	        -21.54014040	          5.96929866	         32.21723743	         -5.23098572	          3.28006327	         -4.63142815	          0.05759269	          0.06511357	          0.00999999	          0.12753721	          0.14970288	          0.04510591	          0.05036262	          0.08920458	          0.02825793	          0.00999999	          0.11893211	          0.00999999	          0.00999999	          0.35782453	          0.15878124	          0.00999999	          0.00999999	          0.01656036	          0.13873688	          0.02652472	          0.05118321	          0.01434314	          0.25079394	          0.00999999	          0.00999999	          0.10826336	          0.13066406	          0.00999999	
          0.07114648	         -5.25369202	         -1.90684243	          9.07605535	          0.09412040	          0.82126244	         -0.01200359	         27.54731164	          0.04836761	         -3.29699924	        -12.21502048	          5.02877433	          0.19345605	         -9.18224653	         -1.93363215	          2.21698978	        -25.50606020	          4.61756882	         32.19572016	         -5.07362200	          3.75921926	         -4.66302664	          0.04808892	          0.05436873	          0.00999999	          0.13090806	          0.12499936	          0.04663389	          0.04205193	          0.07599091	          0.02359489	          0.00999999	          0.17255756	          0.00999999	          0.00999999	          0.35665696	          0.16689980	          0.00999999	          0.00999999	          0.01382762	          0.15439685	          0.02263936	          0.04273712	          0.01197628	          0.20940868	          0.00999999	          0.00999999	          0.09039807	          0.10910227	          0.00999999	
